<svg xmlns="http://www.w3.org/2000/svg" viewBox="0 0 512 512" width="512" height="512">
  <defs>
    <linearGradient id="emeraldGrad" x1="0%" y1="0%" x2="100%" y2="100%">
      <stop offset="0%" stop-color="#047857" />
      <stop offset="100%" stop-color="#064e3b" />
    </linearGradient>
    <linearGradient id="goldGrad" x1="0%" y1="0%" x2="100%" y2="100%">
      <stop offset="0%" stop-color="#fbbf24" />
      <stop offset="100%" stop-color="#d97706" />
    </linearGradient>
  </defs>
  <!-- Full square background for maskable icons (required for clipping safe-zones) -->
  <rect width="512" height="512" fill="url(#emeraldGrad)" />
  
  <!-- Content scaled slightly down to fit safe-zone center -->
  <g transform="translate(51, 51) scale(0.8)">
    <!-- Mosque Dome Silhouette -->
    <path d="M256 120 C220 190 200 220 200 320 L312 320 C312 220 292 190 256 120 Z" fill="url(#goldGrad)" />
    <rect x="236" y="320" width="40" height="60" rx="8" fill="#ffffff" opacity="0.9" />
    <path d="M160 320 L352 320 L352 350 L160 350 Z" fill="#065f46" opacity="0.4" />
    
    <!-- Crescent Moon and Star -->
    <path d="M256 70 A 15 15 0 1 1 270 85 A 12 12 0 1 0 256 70" fill="#fbbf24" />
    <polygon points="275,65 278,71 284,72 279,76 281,82 275,79 269,82 271,76 266,72 272,71" fill="#fbbf24" />
  </g>
</svg>
